<svg xmlns="http://www.w3.org/2000/svg" xmlns:xlink="http://www.w3.org/1999/xlink" width="276" height="36.629" viewBox="0 0 276 36.629">
  <defs>
    <clipPath id="clip-path">
      <rect id="Rectangle_1521" data-name="Rectangle 1521" width="276" height="36.629" fill="none"/>
    </clipPath>
  </defs>
  <g id="Group_662" data-name="Group 662" transform="translate(0 0)">
    <rect id="Rectangle_1505" data-name="Rectangle 1505" width="37.346" height="36.628" transform="translate(119.258 0.001)" fill="#1a1818"/>
    <rect id="Rectangle_1506" data-name="Rectangle 1506" width="37.346" height="36.628" transform="translate(0 0.001)" fill="#1a1818"/>
    <rect id="Rectangle_1507" data-name="Rectangle 1507" width="37.346" height="36.628" transform="translate(39.753 0.001)" fill="#1a1818"/>
    <rect id="Rectangle_1508" data-name="Rectangle 1508" width="37.346" height="36.628" transform="translate(79.506 0.001)" fill="#1a1818"/>
    <rect id="Rectangle_1509" data-name="Rectangle 1509" width="37.346" height="36.628" transform="translate(159.012 0.001)" fill="#1a1818"/>
    <rect id="Rectangle_1510" data-name="Rectangle 1510" width="37.347" height="36.628" transform="translate(198.763 0.001)" fill="#1a1818"/>
    <g id="Group_470" data-name="Group 470" transform="translate(0 0)">
      <g id="Group_469" data-name="Group 469" clip-path="url(#clip-path)">
        <path id="Path_898" data-name="Path 898" d="M26.425,15.452c-.162-2.027-.949-3.082-3.609-3.407V7.891c2,.034,4.824.483,6.661,2.285a8.043,8.043,0,0,1,2.1,4.891Zm-7.051,5.858c-2.069-.548-6.364-1.7-6.364-6.625a6.112,6.112,0,0,1,3.74-5.8,12.245,12.245,0,0,1,5.181-.995v4.118c-.953,0-3.639.068-3.639,2.25,0,1.514,1.243,1.9,2.753,2.288l3.547.8c3.147.774,7.344,1.836,7.344,6.981,0,5.026-4,7.243-9.088,7.339V27.388c.561-.03,3.78-.124,3.78-2.57,0-1.709-1.547-2.158-2.6-2.446ZM21.965,31.7c-4.988,0-9.415-1.834-9.678-7.754l5.183-.286c.132,1.542.524,3.408,4.461,3.762Z" transform="translate(-2.977 -1.912)" fill="#ffd400"/>
        <path id="Path_899" data-name="Path 899" d="M71.979,24.548V20.333h1.675a9.038,9.038,0,0,0,2.888-.255,3.181,3.181,0,0,0,2.1-3.093,3.03,3.03,0,0,0-1.117-2.413c-.918-.677-1.772-.7-3.314-.739H71.979V9.686h2.49c2.363.03,4.758.063,6.662,1.443a7.189,7.189,0,0,1,2.69,6.049A7.261,7.261,0,0,1,80.9,23.2c-1.742,1.19-3.479,1.253-6.3,1.351Zm-6.1-14.862h5.252V32.4H65.874Z" transform="translate(-15.96 -2.347)" fill="#ffd400"/>
        <path id="Path_900" data-name="Path 900" d="M124.165,24.033v-4.12h2.394c1.8,0,4.724-.032,4.724-3.182,0-2.836-2.527-2.766-4.2-2.766h-2.916V9.683h3.7c2.235.033,4.4.067,6.2,1.353a5.875,5.875,0,0,1,2.3,4.921c0,3.539-2.2,5.243-4.135,5.5a3.7,3.7,0,0,1,2.462,1.8c.494.868.56,1.253,1.115,4.662a9.41,9.41,0,0,0,1.674,4.473h-5.513a7.785,7.785,0,0,1-1.145-3.151c-.167-.807-.231-1.672-.4-2.478-.522-2.546-1.741-2.735-3.806-2.735Zm-6.071-14.35h5.215V32.4h-5.215Z" transform="translate(-28.612 -2.346)" fill="#ffd400"/>
        <rect id="Rectangle_1511" data-name="Rectangle 1511" width="5.216" height="22.714" transform="translate(135.769 7.337)" fill="#ffd400"/>
        <path id="Path_901" data-name="Path 901" d="M236.386,9.683h5.182V30.726l-4.987-8.236ZM222.74,32.4V11.2l4.987,8.2.23,13Zm0-22.714h5.018L241.568,32.4h-4.919Z" transform="translate(-53.966 -2.346)" fill="#ffd400"/>
        <path id="Path_902" data-name="Path 902" d="M287.713,9.683h6.1v4.211h-6.1Zm-6.1,0h5.25V32.4h-5.25Zm-6.889,0h6.07v4.211h-6.07Z" transform="translate(-66.56 -2.346)" fill="#ffd400"/>
        <rect id="Rectangle_1512" data-name="Rectangle 1512" width="37.346" height="36.628" transform="translate(238.653)" fill="#e82717"/>
        <path id="Path_903" data-name="Path 903" d="M321.05,17.216l3.694-3.626L321.05,9.965l2.463-2.422,3.7,3.626,3.7-3.626,2.467,2.422-3.7,3.626,3.7,3.626-2.467,2.414-3.7-3.625-3.7,3.625Z" transform="translate(-77.784 -1.828)" fill="#fff"/>
        <rect id="Rectangle_1513" data-name="Rectangle 1513" width="37.346" height="36.628" transform="translate(119.258 0.001)" fill="#1a1818"/>
        <rect id="Rectangle_1514" data-name="Rectangle 1514" width="37.346" height="36.628" transform="translate(0 0.001)" fill="#1a1818"/>
        <rect id="Rectangle_1515" data-name="Rectangle 1515" width="37.346" height="36.628" transform="translate(39.753 0.001)" fill="#1a1818"/>
        <rect id="Rectangle_1516" data-name="Rectangle 1516" width="37.346" height="36.628" transform="translate(79.506 0.001)" fill="#1a1818"/>
        <rect id="Rectangle_1517" data-name="Rectangle 1517" width="37.346" height="36.628" transform="translate(159.012 0.001)" fill="#1a1818"/>
        <rect id="Rectangle_1518" data-name="Rectangle 1518" width="37.347" height="36.628" transform="translate(198.763 0.001)" fill="#1a1818"/>
        <path id="Path_904" data-name="Path 904" d="M26.425,15.452c-.162-2.027-.949-3.082-3.609-3.407V7.891c2,.034,4.824.483,6.661,2.285a8.043,8.043,0,0,1,2.1,4.891Zm-7.051,5.858c-2.069-.548-6.364-1.7-6.364-6.625a6.112,6.112,0,0,1,3.74-5.8,12.245,12.245,0,0,1,5.181-.995v4.118c-.953,0-3.639.068-3.639,2.25,0,1.514,1.243,1.9,2.753,2.288l3.547.8c3.147.774,7.344,1.836,7.344,6.981,0,5.026-4,7.243-9.088,7.339V27.388c.561-.03,3.78-.124,3.78-2.57,0-1.709-1.547-2.158-2.6-2.446ZM21.965,31.7c-4.988,0-9.415-1.834-9.678-7.754l5.183-.286c.132,1.542.524,3.408,4.461,3.762Z" transform="translate(-2.977 -1.912)" fill="#ffd400"/>
        <path id="Path_905" data-name="Path 905" d="M71.979,24.548V20.333h1.675a9.038,9.038,0,0,0,2.888-.255,3.181,3.181,0,0,0,2.1-3.093,3.03,3.03,0,0,0-1.117-2.413c-.918-.677-1.772-.7-3.314-.739H71.979V9.686h2.49c2.363.03,4.758.063,6.662,1.443a7.189,7.189,0,0,1,2.69,6.049A7.261,7.261,0,0,1,80.9,23.2c-1.742,1.19-3.479,1.253-6.3,1.351Zm-6.1-14.862h5.252V32.4H65.874Z" transform="translate(-15.96 -2.347)" fill="#ffd400"/>
        <path id="Path_906" data-name="Path 906" d="M124.165,24.033v-4.12h2.394c1.8,0,4.724-.032,4.724-3.182,0-2.836-2.527-2.766-4.2-2.766h-2.916V9.683h3.7c2.235.033,4.4.067,6.2,1.353a5.875,5.875,0,0,1,2.3,4.921c0,3.539-2.2,5.243-4.135,5.5a3.7,3.7,0,0,1,2.462,1.8c.494.868.56,1.253,1.115,4.662a9.41,9.41,0,0,0,1.674,4.473h-5.513a7.785,7.785,0,0,1-1.145-3.151c-.167-.807-.231-1.672-.4-2.478-.522-2.546-1.741-2.735-3.806-2.735Zm-6.071-14.35h5.215V32.4h-5.215Z" transform="translate(-28.612 -2.346)" fill="#ffd400"/>
        <rect id="Rectangle_1519" data-name="Rectangle 1519" width="5.216" height="22.714" transform="translate(135.769 7.337)" fill="#ffd400"/>
        <path id="Path_907" data-name="Path 907" d="M236.386,9.683h5.182V30.726l-4.987-8.236ZM222.74,32.4V11.2l4.987,8.2.23,13Zm0-22.714h5.018L241.568,32.4h-4.919Z" transform="translate(-53.966 -2.346)" fill="#ffd400"/>
        <path id="Path_908" data-name="Path 908" d="M287.713,9.683h6.1v4.211h-6.1Zm-6.1,0h5.25V32.4h-5.25Zm-6.889,0h6.07v4.211h-6.07Z" transform="translate(-66.56 -2.346)" fill="#ffd400"/>
        <rect id="Rectangle_1520" data-name="Rectangle 1520" width="37.346" height="36.628" transform="translate(238.653)" fill="#e82717"/>
        <path id="Path_909" data-name="Path 909" d="M332.056,36.442l3.694-3.628-3.694-3.628,2.463-2.419,3.7,3.631,3.7-3.631,2.465,2.419-3.7,3.628,3.7,3.628-2.465,2.413-3.7-3.62-3.7,3.62Z" transform="translate(-80.451 -6.485)" fill="#fff"/>
        <path id="Path_910" data-name="Path 910" d="M342.492,16.733l3.694-3.623L342.492,9.48l2.461-2.413,3.7,3.624,3.7-3.624,2.466,2.413-3.7,3.631,3.7,3.623-2.466,2.419-3.7-3.624-3.7,3.624Z" transform="translate(-82.979 -1.712)" fill="#fff"/>
        <path id="Path_911" data-name="Path 911" d="M321.05,17.216l3.694-3.626L321.05,9.965l2.463-2.422,3.7,3.626,3.7-3.626,2.467,2.422-3.7,3.626,3.7,3.626-2.467,2.414-3.7-3.625-3.7,3.625Z" transform="translate(-77.784 -1.828)" fill="#fff"/>
      </g>
    </g>
  </g>
</svg>
